<svg id="visual" viewBox="0 0 900 600" width="900" height="600" xmlns="http://www.w3.org/2000/svg" xmlns:xlink="http://www.w3.org/1999/xlink" version="1.1"><rect x="0" y="0" width="900" height="600" fill="#FFFFFF"></rect><defs><linearGradient id="grad1_0" x1="33.3%" y1="100%" x2="100%" y2="0%"><stop offset="20%" stop-color="#ffffff" stop-opacity="1"></stop><stop offset="80%" stop-color="#ffffff" stop-opacity="1"></stop></linearGradient></defs><defs><linearGradient id="grad2_0" x1="0%" y1="100%" x2="66.7%" y2="0%"><stop offset="20%" stop-color="#ffffff" stop-opacity="1"></stop><stop offset="80%" stop-color="#ffffff" stop-opacity="1"></stop></linearGradient></defs><g transform="translate(900, 600)"><path d="M-270.4 0C-270.5 -39 -270.6 -78 -249.8 -103.5C-229.1 -129 -187.4 -141 -159.1 -159.1C-130.8 -177.2 -115.8 -201.3 -91.5 -220.8C-67.2 -240.4 -33.6 -255.4 0 -270.4L0 0Z" fill="#008836"></path></g><g transform="translate(0, 0)"><path d="M270.4 0C267.5 37.3 264.6 74.6 247.6 102.6C230.6 130.5 199.4 149.1 174.7 174.7C149.9 200.2 131.5 232.7 103.5 249.8C75.4 267 37.7 268.7 0 270.4L0 0Z" fill="#008836"></path></g></svg>