<svg id="visual" viewBox="0 0 900 600" width="900" height="600" xmlns="http://www.w3.org/2000/svg" xmlns:xlink="http://www.w3.org/1999/xlink" version="1.1"><path d="M0 356L21.5 355.3C43 354.7 86 353.3 128.8 363.3C171.7 373.3 214.3 394.7 257.2 405.8C300 417 343 418 385.8 413.3C428.7 408.7 471.3 398.3 514.2 391.2C557 384 600 380 642.8 381.3C685.7 382.7 728.3 389.3 771.2 388.2C814 387 857 378 878.5 373.5L900 369L900 601L878.5 601C857 601 814 601 771.2 601C728.3 601 685.7 601 642.8 601C600 601 557 601 514.2 601C471.3 601 428.7 601 385.8 601C343 601 300 601 257.2 601C214.3 601 171.7 601 128.8 601C86 601 43 601 21.5 601L0 601Z" fill="#0f248d"></path><path d="M0 444L21.5 448.8C43 453.7 86 463.3 128.8 456.3C171.7 449.3 214.3 425.7 257.2 414.5C300 403.3 343 404.7 385.8 410.5C428.7 416.3 471.3 426.7 514.2 431.5C557 436.3 600 435.7 642.8 436C685.7 436.3 728.3 437.7 771.2 437C814 436.3 857 433.7 878.5 432.3L900 431L900 601L878.5 601C857 601 814 601 771.2 601C728.3 601 685.7 601 642.8 601C600 601 557 601 514.2 601C471.3 601 428.7 601 385.8 601C343 601 300 601 257.2 601C214.3 601 171.7 601 128.8 601C86 601 43 601 21.5 601L0 601Z" fill="#004a9a"></path><path d="M0 491L21.5 484.7C43 478.3 86 465.7 128.8 463.2C171.7 460.7 214.3 468.3 257.2 475.2C300 482 343 488 385.8 489.3C428.7 490.7 471.3 487.3 514.2 480.7C557 474 600 464 642.8 466.7C685.7 469.3 728.3 484.7 771.2 482C814 479.3 857 458.7 878.5 448.3L900 438L900 601L878.5 601C857 601 814 601 771.2 601C728.3 601 685.7 601 642.8 601C600 601 557 601 514.2 601C471.3 601 428.7 601 385.8 601C343 601 300 601 257.2 601C214.3 601 171.7 601 128.8 601C86 601 43 601 21.5 601L0 601Z" fill="#006799"></path><path d="M0 489L21.5 495C43 501 86 513 128.8 511.8C171.7 510.7 214.3 496.3 257.2 497C300 497.7 343 513.3 385.8 521.3C428.7 529.3 471.3 529.7 514.2 525.7C557 521.7 600 513.3 642.8 506.5C685.7 499.7 728.3 494.3 771.2 499.8C814 505.3 857 521.7 878.5 529.8L900 538L900 601L878.5 601C857 601 814 601 771.2 601C728.3 601 685.7 601 642.8 601C600 601 557 601 514.2 601C471.3 601 428.7 601 385.8 601C343 601 300 601 257.2 601C214.3 601 171.7 601 128.8 601C86 601 43 601 21.5 601L0 601Z" fill="#007e89"></path><path d="M0 572L21.5 565.7C43 559.3 86 546.7 128.8 545.2C171.7 543.7 214.3 553.3 257.2 557.5C300 561.7 343 560.3 385.8 554C428.7 547.7 471.3 536.3 514.2 533.7C557 531 600 537 642.8 539C685.7 541 728.3 539 771.2 541.3C814 543.7 857 550.3 878.5 553.7L900 557L900 601L878.5 601C857 601 814 601 771.2 601C728.3 601 685.7 601 642.8 601C600 601 557 601 514.2 601C471.3 601 428.7 601 385.8 601C343 601 300 601 257.2 601C214.3 601 171.7 601 128.8 601C86 601 43 601 21.5 601L0 601Z" fill="#008836"></path></svg>