<svg id="visual" viewBox="0 0 900 600" width="900" height="600" xmlns="http://www.w3.org/2000/svg" xmlns:xlink="http://www.w3.org/1999/xlink" version="1.1"><rect x="0" y="0" width="900" height="600" fill="#FFFFFF"></rect><defs><linearGradient id="grad1_0" x1="33.3%" y1="100%" x2="100%" y2="0%"><stop offset="20%" stop-color="#ffffff" stop-opacity="1"></stop><stop offset="80%" stop-color="#ffffff" stop-opacity="1"></stop></linearGradient></defs><defs><linearGradient id="grad2_0" x1="0%" y1="100%" x2="66.7%" y2="0%"><stop offset="20%" stop-color="#ffffff" stop-opacity="1"></stop><stop offset="80%" stop-color="#ffffff" stop-opacity="1"></stop></linearGradient></defs><g transform="translate(900, 600)"><path d="M-216.3 0C-194 -21.8 -171.6 -43.6 -159.8 -66.2C-148 -88.8 -146.7 -112.1 -136.5 -136.5C-126.2 -160.9 -107 -186.4 -82.8 -199.9C-58.5 -213.4 -29.3 -214.8 0 -216.3L0 0Z" fill="#085662"></path></g><g transform="translate(0, 0)"><path d="M216.3 0C213.1 27.5 209.8 55 199.9 82.8C190 110.5 173.4 138.5 149.2 149.2C125 159.9 93.1 153.4 67 161.7C40.8 170 20.4 193.2 0 216.3L0 0Z" fill="#085662"></path></g></svg>