<svg id="visual" viewBox="0 0 900 600" width="900" height="600" xmlns="http://www.w3.org/2000/svg" xmlns:xlink="http://www.w3.org/1999/xlink" version="1.1"><rect x="0" y="0" width="900" height="600" fill="#FFFFFF"></rect><defs><linearGradient id="grad1_0" x1="33.3%" y1="100%" x2="100%" y2="0%"><stop offset="20%" stop-color="#ffffff" stop-opacity="1"></stop><stop offset="80%" stop-color="#ffffff" stop-opacity="1"></stop></linearGradient></defs><defs><linearGradient id="grad2_0" x1="0%" y1="100%" x2="66.7%" y2="0%"><stop offset="20%" stop-color="#ffffff" stop-opacity="1"></stop><stop offset="80%" stop-color="#ffffff" stop-opacity="1"></stop></linearGradient></defs><g transform="translate(900, 600)"><path d="M-270.4 0C-268.8 -25 -267.2 -49.9 -254 -68.1C-240.9 -86.2 -216.2 -97.5 -207 -119.5C-197.7 -141.5 -203.8 -174 -191.2 -191.2C-178.6 -208.4 -147.2 -210.2 -122.5 -212.2C-97.8 -214.1 -79.9 -216.3 -60.6 -226C-41.3 -235.8 -20.6 -253.1 0 -270.4L0 0Z" fill="#0F248D"></path></g><g transform="translate(0, 0)"><path d="M270.4 0C264.2 22 258.1 44.1 254 68.1C250 92.1 248.2 118.1 234.2 135.2C220.2 152.3 194.2 160.6 176.1 176.1C158 191.5 147.9 214.2 130.5 226C113.1 237.8 88.4 238.8 65.5 244.4C42.5 250 21.3 260.2 0 270.4L0 0Z" fill="#0F248D"></path></g></svg>